# xmcd
#
# Track frame offsets:
#	150
#	19875
#	33375
#	47325
#	60675
#	76125
#	89100
#	107325
#	123150
#	140100
#	156900
#	176625
#	190125
#	204075
#	217425
#	232875
#	245850
#	264075
#	279900
#	296850
#
# Disc length: 4186 seconds
#
# Revision: 2
# Processed by: cddbd v1.5.2PL0 Copyright (c) Steve Scherf et al.
# Submitted via: audiograbber 1.83.01
#
DISCID=21105814
DTITLE=CMT - CHT9909
DYEAR=1999
DGENRE=Karaoke
TTITLE0=Alan Jackson - Little Man
TTITLE1=Tim Mcgraw - Something Like That
TTITLE2=Andy Griggs - I'll Go Crazy
TTITLE3=George Strait - What Do You Say To That
TTITLE4=John Michael Montgomery - Home To You
TTITLE5=Michael Peterson - Sure Feels Real Good
TTITLE6=Gary Allan - Smoke Rings In The Dark
TTITLE7=Chad Brock - Lightening Does The Work
TTITLE8=Brad Paisley - Who Needs Pictures
TTITLE9=Billy Ray Cyrus - Give My Heart To You
TTITLE10=Alan Jackson  - Little Man (Vocals)
TTITLE11=Tim McGraw  - Something Like That (Vocals)
TTITLE12=Andy Griggs  - I'll Go Crazy (Vocals)
TTITLE13=George Strait  - What Do You Say To That (Vocals)
TTITLE14=John Michael Montgomery  - Home To You (Vocals)
TTITLE15=Michael Peterson  - Sure Feels Real Good (Vocals)
TTITLE16=Gary Allan  - Smoke Rings In The Dark (Vocals)
TTITLE17=Chad Brock  - Lightening Does The Work (Vocals)
TTITLE18=Brad Paisley  - Who Needs Pictures (Vocals)
TTITLE19=Billy Ray Cyrus  - Give My Heart To You (Vocals)
EXTD=Fixed 11-20
EXTT0=
EXTT1=
EXTT2=
EXTT3=
EXTT4=
EXTT5=
EXTT6=
EXTT7=
EXTT8=
EXTT9=
EXTT10=
EXTT11=
EXTT12=
EXTT13=
EXTT14=
EXTT15=
EXTT16=
EXTT17=
EXTT18=
EXTT19=
PLAYORDER=
